<?xml version="1.0" standalone="no"?>
<!DOCTYPE svg PUBLIC "-//W3C//DTD SVG 20010904//EN"
 "http://www.w3.org/TR/2001/REC-SVG-20010904/DTD/svg10.dtd">
<svg version="1.0" xmlns="http://www.w3.org/2000/svg"
 width="225.000000pt" height="224.000000pt" viewBox="0 0 225.000000 224.000000"
 preserveAspectRatio="xMidYMid meet">

<g transform="translate(0.000000,224.000000) scale(0.100000,-0.100000)"
fill="#fff" stroke="none">
<path d="M1055 2174 c-15 -12 -33 -14 -72 -10 -42 5 -59 2 -88 -15 -26 -16
-46 -20 -70 -16 -21 4 -40 1 -47 -7 -32 -30 -65 -46 -100 -46 -28 0 -41 -6
-53 -23 -17 -27 -55 -47 -89 -47 -15 0 -34 -15 -56 -41 -18 -23 -52 -50 -75
-60 -32 -14 -45 -28 -58 -59 -9 -24 -27 -47 -46 -58 -17 -9 -34 -26 -37 -37
-11 -41 -29 -67 -56 -81 -21 -11 -28 -22 -28 -45 0 -37 -15 -68 -46 -91 -18
-15 -21 -25 -17 -55 4 -30 -1 -46 -22 -77 -22 -32 -25 -46 -20 -78 5 -30 2
-47 -15 -75 -20 -33 -21 -41 -9 -75 10 -31 10 -46 -1 -78 -12 -35 -11 -45 5
-80 16 -36 17 -46 6 -77 -12 -32 -11 -38 10 -67 17 -22 24 -45 24 -77 0 -37 6
-53 33 -84 27 -30 33 -44 28 -66 -4 -24 1 -35 34 -68 29 -29 40 -48 40 -70 0
-25 8 -36 41 -57 27 -17 46 -39 56 -64 12 -29 24 -41 53 -53 28 -11 44 -26 59
-56 16 -31 27 -41 45 -41 38 0 54 -10 77 -46 16 -26 27 -34 50 -34 38 0 85
-24 100 -51 9 -18 17 -20 49 -15 30 5 45 1 80 -23 37 -25 47 -27 75 -18 27 8
41 6 80 -13 38 -19 51 -21 66 -12 24 15 54 15 96 0 28 -10 38 -9 64 6 23 14
41 16 79 11 42 -6 54 -3 76 14 19 15 41 21 77 21 41 0 55 5 84 30 23 20 44 30
66 30 25 0 42 9 67 35 20 20 44 35 57 35 13 0 35 12 49 27 53 61 67 72 87 75
12 2 29 19 41 43 13 24 36 48 59 60 30 16 39 27 43 58 5 25 17 47 39 66 20 17
35 41 39 65 4 20 21 52 37 71 25 29 30 40 24 65 -5 24 -1 40 20 71 22 34 25
48 20 80 -5 30 -2 47 14 75 19 32 20 40 9 70 -9 27 -9 44 1 83 11 43 10 53 -4
75 -14 20 -16 38 -11 79 6 46 4 56 -14 72 -15 14 -20 30 -20 70 0 42 -5 56
-25 75 -16 15 -27 39 -31 69 -5 36 -14 52 -40 74 -22 18 -34 37 -34 53 0 34
-17 64 -36 64 -21 0 -60 45 -67 78 -4 18 -17 32 -39 42 -18 8 -44 32 -57 53
-17 26 -32 37 -49 37 -15 0 -40 15 -65 41 -29 28 -51 42 -74 44 -19 2 -48 16
-68 34 -27 23 -45 31 -74 31 -23 0 -51 9 -72 23 -26 17 -44 22 -76 19 -31 -3
-52 2 -77 18 -29 17 -39 19 -57 10 -20 -11 -60 -10 -119 4 -16 4 -33 0 -45
-10z m295 -166 c312 -76 576 -322 669 -623 99 -320 28 -641 -198 -903 -171
-197 -466 -316 -741 -299 -236 14 -441 107 -614 280 -184 183 -268 386 -268
642 0 179 42 327 136 490 55 94 208 247 305 304 220 129 470 168 711 109z"/>
<path d="M964 1999 c-333 -56 -631 -329 -715 -657 -26 -101 -35 -266 -20 -362
16 -103 68 -250 120 -339 115 -195 354 -368 580 -417 271 -59 555 4 767 171
144 114 241 256 306 447 30 88 32 101 32 243 0 199 -19 280 -111 459 -148 286
-463 468 -803 465 -58 -1 -128 -5 -156 -10z m24 -135 c12 -8 22 -25 23 -37 0
-25 54 -73 64 -57 4 6 13 5 25 -2 15 -10 36 -6 112 20 129 45 150 39 43 -11
-49 -24 -85 -46 -80 -49 6 -3 25 -9 44 -13 18 -4 54 -17 80 -28 37 -17 42 -22
24 -25 -24 -4 -92 8 -164 28 -38 11 -54 11 -92 -1 -26 -7 -47 -19 -47 -25 0
-22 -52 -54 -85 -54 -34 0 -61 22 -50 40 14 23 86 50 134 50 27 0 53 5 56 11
8 12 -69 88 -90 90 -55 5 -87 38 -64 65 15 18 39 18 67 -2z m-432 -212 c-16
-31 -70 -82 -87 -82 -12 0 -3 36 18 68 17 27 77 66 81 53 2 -5 -4 -23 -12 -39z
m1194 -10 c27 -27 40 -47 40 -65 0 -32 -6 -33 -44 -8 -34 23 -55 56 -56 89 0
31 13 28 60 -16z m-1325 -91 c8 -28 13 -32 35 -28 14 3 33 2 43 -2 17 -6 16
-9 -7 -34 -49 -52 -121 -23 -119 48 2 64 31 74 48 16z m976 -5 c-7 -8 -11 -37
-9 -66 l3 -52 26 21 c24 18 28 19 47 5 19 -13 22 -25 22 -93 0 -72 -2 -79 -28
-104 -38 -37 -43 -34 -20 11 15 30 18 48 12 97 -7 64 -18 79 -46 64 -21 -11
-25 -88 -6 -118 17 -27 -6 -55 -31 -39 -14 8 -16 22 -13 67 2 31 -1 89 -5 129
-9 65 -8 72 8 72 10 0 21 5 24 10 3 6 11 10 17 10 7 0 6 -5 -1 -14z m483 -12
c20 -53 -8 -114 -53 -114 -33 0 -81 34 -81 57 0 12 8 14 38 9 36 -5 39 -4 51
29 13 37 35 46 45 19z m-926 -22 c23 -2 42 -7 42 -11 0 -17 -26 -31 -57 -31
-19 0 -33 -5 -34 -12 -1 -7 -4 -3 -7 10 -12 40 -26 19 -23 -35 2 -50 1 -54
-41 -92 -46 -43 -45 -55 8 -69 58 -16 64 -9 66 81 l2 82 3 -77 c4 -82 11 -91
47 -60 21 17 21 17 3 -4 -54 -65 -225 -42 -255 33 -31 79 -17 136 43 173 43
27 46 25 28 -11 -16 -32 -16 -160 0 -176 18 -17 27 26 21 103 l-7 81 44 16
c24 8 51 13 59 10 8 -4 34 -8 58 -11z m77 -32 c3 -5 -1 -10 -9 -10 -9 0 -16 5
-16 10 0 6 4 10 9 10 6 0 13 -4 16 -10z m-674 -33 c9 -7 19 -22 23 -34 7 -21
8 -21 43 -7 43 18 49 14 33 -25 -15 -37 -60 -55 -96 -39 -27 13 -39 46 -35
101 1 20 10 21 32 4z m954 -28 c11 -18 -4 -23 -30 -11 l-26 12 3 -57 c3 -55 4
-58 31 -61 27 -3 28 -5 13 -21 -14 -15 -22 -16 -49 -8 -32 10 -32 11 -32 76 0
59 3 68 25 82 25 16 51 12 65 -12z m-281 -72 c1 -97 -17 -98 -25 -1 -6 73 -3
87 13 82 6 -2 11 -38 12 -81z m147 3 c3 -41 3 -79 -1 -83 -14 -15 -29 19 -32
73 -3 53 -4 55 -32 58 -25 3 -28 1 -18 -11 9 -10 10 -22 3 -39 -11 -29 2 -58
27 -58 15 0 15 -1 -1 -17 -15 -16 -18 -16 -37 2 -24 21 -26 67 -5 85 14 12 14
15 0 30 -8 9 -15 19 -15 23 0 8 30 14 70 13 l35 -1 6 -75z m759 22 c0 -52 -23
-82 -62 -82 -36 0 -78 34 -78 62 0 15 5 17 28 12 15 -4 33 -11 40 -17 8 -6 12
-5 12 5 0 21 29 58 46 58 10 0 14 -12 14 -38z m-1590 -80 c10 -21 20 -30 30
-26 8 3 28 8 44 11 26 6 28 4 21 -18 -9 -33 -42 -59 -75 -59 -44 0 -78 55 -66
106 8 32 27 27 46 -14z m1619 -67 c-9 -32 -42 -65 -66 -65 -19 0 -73 54 -73
74 0 20 29 20 58 0 13 -9 22 -11 22 -4 0 6 12 23 27 38 25 25 27 25 33 7 4
-11 3 -33 -1 -50z m-1639 -55 c11 -11 20 -27 20 -37 0 -15 2 -15 18 0 18 16
72 34 72 23 0 -4 -7 -22 -15 -41 -32 -78 -128 -60 -135 26 -5 55 6 63 40 29z
m1664 -47 c-11 -50 -38 -78 -77 -81 -32 -3 -39 1 -57 30 -11 18 -19 40 -17 48
3 18 35 14 59 -7 16 -15 20 -14 39 11 11 14 29 26 40 26 16 0 18 -5 13 -27z
m-819 -17 c9 -26 7 -31 -22 -53 -33 -25 -33 -26 -16 -54 20 -34 25 -35 58 -13
23 15 28 15 56 1 30 -14 30 -15 10 -22 -12 -4 -28 -2 -36 5 -10 9 -19 9 -35 0
-19 -10 -20 -13 -7 -33 9 -13 27 -23 46 -25 27 -3 30 -6 20 -18 -19 -23 -75
-18 -97 10 l-19 25 -38 -26 -39 -26 -28 34 c-15 18 -28 36 -28 40 0 3 18 19
40 34 22 15 40 29 40 31 0 1 -10 19 -21 39 -12 20 -20 37 -18 39 2 2 22 13 44
25 52 27 77 23 90 -13z m-838 -90 l19 -23 28 23 c37 32 46 30 46 -9 0 -74 -84
-92 -127 -28 -13 19 -23 40 -23 47 0 23 37 16 57 -10z m1566 -36 c14 -19 14
-19 37 5 31 33 64 34 54 3 -29 -93 -104 -111 -140 -34 -21 43 -13 72 15 56 11
-5 26 -19 34 -30z m-1443 -108 c0 -30 -42 -72 -72 -72 -34 1 -88 52 -88 84 0
12 46 6 66 -8 19 -13 23 -12 49 15 30 33 45 26 45 -19z m1468 -15 c43 25 58 8
32 -34 -37 -62 -122 -52 -128 16 -2 18 0 40 3 49 6 14 11 11 34 -16 l28 -33
31 18z m-995 -70 c21 -2 21 0 -3 -47 l-20 -40 49 0 c74 0 98 -35 71 -104 -13
-34 -85 -79 -115 -72 -13 3 -39 -1 -59 -9 -53 -22 -103 -20 -117 6 -15 29 7
50 52 51 32 1 48 12 49 31 0 5 -5 5 -11 2 -6 -4 -26 -4 -45 -1 -41 8 -56 46
-30 75 9 10 16 23 16 29 0 7 17 30 37 53 34 38 40 40 73 34 19 -4 43 -7 53 -8z
m895 -12 c7 -14 12 -33 12 -42 0 -10 5 -13 18 -8 34 14 47 15 62 5 22 -15 -31
-60 -72 -60 -57 0 -87 57 -58 111 14 26 25 24 38 -6z m-1323 -8 c14 -52 -38
-107 -86 -92 -23 7 -69 62 -69 81 0 20 33 17 62 -6 l25 -19 22 29 c26 36 39
38 46 7z m897 14 c11 6 22 8 26 5 3 -3 0 -6 -6 -6 -8 0 -12 -32 -12 -107 0
-84 3 -110 16 -125 16 -16 15 -18 0 -24 -9 -4 -26 -3 -37 2 -18 8 -20 20 -22
136 -1 76 2 123 7 118 5 -5 17 -5 28 1z m-269 -84 l22 -4 -22 -8 c-21 -7 -23
-14 -23 -71 0 -49 4 -66 15 -70 14 -6 13 -8 -2 -19 -14 -11 -21 -11 -36 0 -27
19 -28 156 -1 202 l19 33 3 -29 c2 -21 9 -31 25 -34z m107 -71 l1 -61 24 28
c26 30 32 66 15 97 -13 25 4 35 24 14 20 -20 21 -83 1 -111 -9 -12 -38 -35
-65 -50 -53 -30 -63 -43 -53 -69 4 -12 14 -14 37 -11 27 5 28 5 9 -5 -46 -22
-77 16 -49 62 20 34 23 170 4 170 -6 0 -3 7 8 15 17 12 20 12 32 -2 6 -9 12
-44 12 -77z m328 64 l22 -30 -40 -36 c-22 -20 -40 -44 -40 -54 0 -24 34 -31
62 -12 22 14 22 14 -2 -11 -21 -22 -31 -26 -60 -21 l-35 6 -3 78 c-3 77 -2 79
25 94 39 21 46 20 71 -14z m207 -36 c18 -27 22 -29 45 -17 56 28 77 2 31 -39
-30 -27 -73 -36 -97 -20 -21 14 -34 51 -28 82 8 36 21 35 49 -6z m-1225 -20
c0 -31 -38 -74 -65 -74 -30 0 -85 46 -85 71 0 23 15 24 55 3 22 -11 31 -12 34
-3 2 6 12 20 23 31 17 17 22 18 29 7 5 -8 9 -24 9 -35z m1177 -141 c-41 -55
-85 -99 -92 -91 -3 3 13 27 35 54 23 27 48 62 57 78 10 20 18 25 25 18 8 -8 0
-25 -25 -59z m-1151 7 c20 -22 50 -48 65 -57 31 -19 38 -33 15 -33 -20 0 -137
110 -130 121 8 14 12 12 50 -31z m270 -75 c4 -8 15 -15 25 -15 16 0 18 -3 9
-19 -5 -11 -10 -29 -10 -41 0 -18 -3 -19 -20 -10 -14 8 -26 8 -40 0 -18 -10
-20 -8 -20 18 0 15 -5 33 -12 40 -9 9 -7 12 10 12 13 0 25 7 28 15 4 8 10 15
15 15 5 0 12 -7 15 -15z m662 -25 c15 0 16 -17 1 -26 -6 -3 -8 -16 -5 -28 5
-19 1 -21 -34 -21 -28 0 -40 4 -40 14 0 8 -7 23 -17 33 -15 17 -15 18 1 18 9
0 24 9 33 20 15 17 19 18 33 5 9 -8 22 -15 28 -15z m-289 -40 c25 0 27 -12 6
-30 -9 -7 -15 -29 -15 -51 0 -38 0 -38 -29 -28 -21 7 -36 7 -50 0 -31 -17 -42
-13 -36 12 4 15 -1 32 -16 51 -18 23 -20 30 -8 37 8 5 20 9 26 9 7 0 20 14 28
31 l16 30 29 -30 c15 -17 37 -31 49 -31z"/>
<path d="M940 1851 c0 -19 18 -31 46 -31 18 0 18 15 -2 34 -21 22 -44 20 -44
-3z"/>
<path d="M932 1668 c-51 -25 -50 -44 3 -42 27 1 44 8 57 24 36 45 11 53 -60
18z"/>
<path d="M1103 1113 c-17 -6 -16 -35 1 -58 12 -16 16 -17 30 -6 31 26 6 77
-31 64z"/>
<path d="M1062 985 c-22 -16 -22 -17 -5 -46 20 -34 24 -35 53 -11 l22 18 -23
27 c-23 26 -25 27 -47 12z"/>
<path d="M830 763 c-19 -8 -30 -23 -30 -45 0 -27 85 -26 100 1 5 11 10 22 10
24 0 4 -61 29 -64 26 -1 0 -8 -3 -16 -6z"/>
<path d="M764 669 c-3 -6 -2 -15 4 -21 12 -12 94 -6 99 8 2 6 -8 9 -26 6 -16
-2 -38 1 -49 7 -15 8 -23 8 -28 0z"/>
<path d="M887 663 c-16 -15 -4 -22 45 -25 65 -4 74 -25 31 -70 l-28 -30 31 15
c43 22 60 77 32 105 -13 13 -100 17 -111 5z"/>
<path d="M885 601 c-36 -8 -45 -36 -14 -44 27 -7 79 18 79 38 0 16 -15 17 -65
6z"/>
<path d="M750 536 c0 -19 27 -28 66 -20 45 8 43 20 -3 28 -55 9 -63 8 -63 -8z"/>
<path d="M1510 657 c0 -26 2 -47 5 -47 3 0 16 9 28 20 l21 20 -27 27 -27 28 0
-48z"/>
</g>
</svg>
